<?xml version="1.0" encoding="UTF-8" standalone="no"?>
<svg
   id="primary_logo"
   data-name="primary logo"
   viewBox="0 0 111.119 111.119"
   version="1.1"
   sodipodi:docname="ArXiv_logo_2022.svg"
   inkscape:version="1.4.2 (f4327f4, 2025-05-13)"
   width="111.119"
   height="111.119"
   xmlns:inkscape="http://www.inkscape.org/namespaces/inkscape"
   xmlns:sodipodi="http://sodipodi.sourceforge.net/DTD/sodipodi-0.dtd"
   xmlns="http://www.w3.org/2000/svg"
   xmlns:svg="http://www.w3.org/2000/svg">
  <defs
     id="defs7" />
  <sodipodi:namedview
     id="namedview7"
     pagecolor="#ffffff"
     bordercolor="#000000"
     borderopacity="0.25"
     inkscape:showpageshadow="2"
     inkscape:pageopacity="0.0"
     inkscape:pagecheckerboard="0"
     inkscape:deskcolor="#d1d1d1"
     inkscape:zoom="2.2526822"
     inkscape:cx="103.2103"
     inkscape:cy="28.410577"
     inkscape:window-width="1920"
     inkscape:window-height="970"
     inkscape:window-x="-12"
     inkscape:window-y="-12"
     inkscape:window-maximized="1"
     inkscape:current-layer="primary_logo" />
  <path
     d="m 69.406,32.884 c 1.859,0 3.1,1.24 3.985,3.453 1.062,-2.213 2.568,-3.453 4.694,-3.453 h 14.878 a 4.062,4.062 0 0 1 4.074,4.074 v 7.828 c 0,2.656 -1.327,4.074 -4.074,4.074 -2.656,0 -4.074,-1.418 -4.074,-4.074 V 41.03 H 78.35 a 2.411,2.411 0 0 0 -2.656,2.745 v 27.188 h 10.007 c 2.658,0 4.074,1.329 4.074,4.074 0,2.745 -1.416,4.074 -4.074,4.074 h -26.39 c -2.659,0 -3.986,-1.328 -3.986,-4.074 0,-2.746 1.327,-4.074 3.986,-4.074 h 8.236 V 41.03 h -7.263 c -2.656,0 -3.985,-1.329 -3.985,-4.074 0,-2.658 1.329,-4.074 3.985,-4.074 z"
     fill="#7c7469"
     id="path1"
     style="display:none" />
  <path
     d="m 181.068,32.884 c 2.656,0 4.074,1.416 4.074,4.074 v 34.007 h 10.1 c 2.746,0 4.074,1.329 4.074,4.074 0,2.745 -1.328,4.074 -4.074,4.074 h -28.607 c -2.656,0 -4.074,-1.328 -4.074,-4.074 0,-2.746 1.418,-4.074 4.074,-4.074 h 10.362 V 41.03 h -8.533 c -2.744,0 -4.073,-1.329 -4.073,-4.074 0,-2.658 1.329,-4.074 4.073,-4.074 z m 4.22,-17.615 a 5.859,5.859 0 1 1 -5.819,-5.819 5.9,5.9 0 0 1 5.819,5.819 z"
     fill="#7c7469"
     id="path2"
     style="display:none" />
  <path
     d="m 246.978,36.958 a 4.589,4.589 0 0 1 -0.267,1.594 L 231.835,76.63 a 3.722,3.722 0 0 1 -3.721,2.48 h -5.933 a 3.689,3.689 0 0 1 -3.808,-2.48 L 203.318,38.549 a 3.23,3.23 0 0 1 -0.355,-1.594 4.084,4.084 0 0 1 4.164,-4.074 3.8,3.8 0 0 1 3.718,2.656 l 14.348,36.134 13.9,-36.134 a 3.8,3.8 0 0 1 3.72,-2.656 4.084,4.084 0 0 1 4.165,4.077 z"
     fill="#7c7469"
     id="path3"
     style="display:none" />
  <path
     d="M 53.984,55.607 21.243,94.459 c -1.286,1.372 -2.084,3.777 -1.365,5.5 a 4.705,4.705 0 0 0 4.4,2.914 4.191,4.191 0 0 0 3.16,-1.563 L 67.629,58.596 a 4.417,4.417 0 0 0 0.042,-6.042 z"
     fill="#aa142d"
     id="path4" />
  <path
     d="M 53.984,55.607 85.171,17.339 c 1.492,-1.989 2.2,-3.03 1.492,-4.723 A 5.142,5.142 0 0 0 82.182,9.455 v 0 a 4.024,4.024 0 0 0 -3.008,1.108 L 40.546,52.33 a 4.769,4.769 0 0 0 0.015,6.53 l 47.786,51.07 a 3.913,3.913 0 0 0 3.137,1.192 4.394,4.394 0 0 0 4.027,-2.818 c 0.719,-1.727 -0.076,-3.438 -1.4,-5.23 L 53.987,55.61"
     fill="#7c7469"
     id="path5"
     style="fill:#ffffff;fill-opacity:1" />
  <path
     d="M 67.668,52.558 21.004,2.13 c 0,0 -1.713,-2.08 -3.524,-2.124 a 4.607,4.607 0 0 0 -4.338,2.788 c -0.705,1.692 -0.2,2.88 1.349,5.1 l 40.093,48.422"
     fill="#aa142d"
     id="path6" />
  <path
     d="m 32.445,32.884 c 5.018,0 8.206,3.312 8.206,8.4 V 79.115 H 5.143 A 4.813,4.813 0 0 1 0,74.186 V 61.157 a 8.256,8.256 0 0 1 7,-8.148 l 25.507,-3.572 v -8.4 H 4.141 A 4.014,4.014 0 0 1 0,36.963 c 0,-2.87 2.143,-4.074 4.355,-4.074 z m 0.059,38.081 V 57.672 l -24.354,3.4 v 9.9 z"
     fill="#7c7469"
     id="path7"
     style="display:none" />
</svg>
