<?xml version="1.0" encoding="UTF-8" standalone="no"?>
<!-- Created with Inkscape (http://www.inkscape.org/) -->

<svg
   version="1.1"
   id="svg1"
   width="960"
   height="960"
   viewBox="0 0 960 960"
   sodipodi:docname="IISELogo_Horiz_FullName_CMYK.eps"
   xmlns:inkscape="http://www.inkscape.org/namespaces/inkscape"
   xmlns:sodipodi="http://sodipodi.sourceforge.net/DTD/sodipodi-0.dtd"
   xmlns="http://www.w3.org/2000/svg"
   xmlns:svg="http://www.w3.org/2000/svg">
  <defs
     id="defs1" />
  <sodipodi:namedview
     id="namedview1"
     pagecolor="#ffffff"
     bordercolor="#000000"
     borderopacity="0.25"
     inkscape:showpageshadow="2"
     inkscape:pageopacity="0.0"
     inkscape:pagecheckerboard="0"
     inkscape:deskcolor="#d1d1d1">
    <inkscape:page
       x="0"
       y="0"
       inkscape:label="1"
       id="page1"
       width="960"
       height="960"
       margin="0"
       bleed="0" />
  </sodipodi:namedview>
  <g
     id="g1"
     inkscape:groupmode="layer"
     inkscape:label="1">
    <g
       id="group-R5">
      <path
         id="path2"
         d="m 1548.86,2557.94 c -169.72,20.48 -318.92,187.93 -412.53,435.66 h 412.53 v -435.66 0"
         style="fill:#334677;fill-opacity:1;fill-rule:evenodd;stroke:none"
         transform="matrix(0.13333333,0,0,-0.13333333,0,960)" />
      <path
         id="path3"
         d="m 2031.79,2993.6 c -93.62,-247.73 -242.81,-415.18 -412.53,-435.66 v 435.66 h 412.53 v 0"
         style="fill:#485e8a;fill-opacity:1;fill-rule:evenodd;stroke:none"
         transform="matrix(0.13333333,0,0,-0.13333333,0,960)" />
      <path
         id="path4"
         d="M 1548.86,3064.01 H 1111.9 c -46.75,147.42 -74.89,318.28 -78.1,500.78 h 515.06 v -500.78 0"
         style="fill:#334677;fill-opacity:1;fill-rule:evenodd;stroke:none"
         transform="matrix(0.13333333,0,0,-0.13333333,0,960)" />
      <path
         id="path5"
         d="m 2134.32,3564.79 c -3.22,-182.5 -31.35,-353.36 -78.1,-500.78 h -436.96 v 500.78 h 515.06 v 0"
         style="fill:#485e8a;fill-opacity:1;fill-rule:evenodd;stroke:none"
         transform="matrix(0.13333333,0,0,-0.13333333,0,960)" />
      <path
         id="path6"
         d="M 1548.86,3635.2 H 1033.8 c 3.21,182.5 31.34,353.39 78.1,500.79 h 436.96 v -500.79 0"
         style="fill:#485e8a;fill-opacity:1;fill-rule:evenodd;stroke:none"
         transform="matrix(0.13333333,0,0,-0.13333333,0,960)" />
      <path
         id="path7"
         d="m 2056.22,4135.99 c 46.76,-147.4 74.88,-318.29 78.1,-500.79 h -515.06 v 500.79 h 436.96 v 0"
         style="fill:#334677;fill-opacity:1;fill-rule:evenodd;stroke:none"
         transform="matrix(0.13333333,0,0,-0.13333333,0,960)" />
      <path
         id="path8"
         d="m 1548.86,4206.4 h -412.54 c 93.62,247.73 242.82,415.17 412.54,435.66 v -435.66 0"
         style="fill:#485e8a;fill-opacity:1;fill-rule:evenodd;stroke:none"
         transform="matrix(0.13333333,0,0,-0.13333333,0,960)" />
      <path
         id="path9"
         d="m 1619.26,4642.06 c 169.72,-20.49 318.92,-187.93 412.54,-435.66 h -412.54 v 435.66 0"
         style="fill:#334677;fill-opacity:1;fill-rule:evenodd;stroke:none"
         transform="matrix(0.13333333,0,0,-0.13333333,0,960)" />
      <path
         id="path10"
         d="m 734.773,4206.4 c 140.997,196.79 348.517,342.93 589.237,405.01 -106.42,-88.68 -196.65,-229.94 -260.25,-405.01 H 734.773 v 0"
         style="fill:#637b9e;fill-opacity:1;fill-rule:evenodd;stroke:none"
         transform="matrix(0.13333333,0,0,-0.13333333,0,960)" />
      <path
         id="path11"
         d="m 540.43,3635.2 c 6.101,182.49 59.425,353.38 148.07,500.79 h 351.71 C 994.234,3986.47 966.82,3816.16 963.664,3635.2 H 540.43 v 0"
         style="fill:#637b9e;fill-opacity:1;fill-rule:evenodd;stroke:none"
         transform="matrix(0.13333333,0,0,-0.13333333,0,960)" />
      <path
         id="path12"
         d="m 688.523,3064.01 c -88.652,147.42 -141.992,318.28 -148.093,500.78 h 423.234 c 3.16,-180.97 30.574,-351.26 76.556,-500.78 H 688.523 v 0"
         style="fill:#203466;fill-opacity:1;fill-rule:evenodd;stroke:none"
         transform="matrix(0.13333333,0,0,-0.13333333,0,960)" />
      <path
         id="path13"
         d="m 1324.02,2588.6 c -240.7,62.07 -448.227,208.21 -589.219,405 h 328.979 c 63.59,-175.08 153.82,-316.33 260.24,-405 v 0"
         style="fill:#203466;fill-opacity:1;fill-rule:evenodd;stroke:none"
         transform="matrix(0.13333333,0,0,-0.13333333,0,960)" />
      <path
         id="path14"
         d="m 2433.33,2993.6 c -140.99,-196.79 -348.53,-342.93 -589.23,-405 106.42,88.67 196.65,229.92 260.24,405 h 328.99 v 0"
         style="fill:#637b9e;fill-opacity:1;fill-rule:evenodd;stroke:none"
         transform="matrix(0.13333333,0,0,-0.13333333,0,960)" />
      <path
         id="path15"
         d="m 2627.68,3564.79 c -6.09,-182.5 -59.43,-353.36 -148.08,-500.78 h -351.7 c 45.98,149.52 73.39,319.81 76.55,500.78 h 423.23 v 0"
         style="fill:#637b9e;fill-opacity:1;fill-rule:evenodd;stroke:none"
         transform="matrix(0.13333333,0,0,-0.13333333,0,960)" />
      <path
         id="path16"
         d="m 2479.62,4135.99 c 88.65,-147.41 141.97,-318.3 148.06,-500.79 h -423.23 c -3.15,180.96 -30.56,351.27 -76.54,500.79 h 351.71 v 0"
         style="fill:#203466;fill-opacity:1;fill-rule:evenodd;stroke:none"
         transform="matrix(0.13333333,0,0,-0.13333333,0,960)" />
      <path
         id="path17"
         d="m 1844.11,4611.41 c 240.71,-62.08 448.23,-208.22 589.24,-405.01 h -328.99 c -63.6,175.07 -153.83,316.33 -260.25,405.01 v 0"
         style="fill:#203466;fill-opacity:1;fill-rule:evenodd;stroke:none"
         transform="matrix(0.13333333,0,0,-0.13333333,0,960)" />
      <path
         id="path18"
         d="m 2837.84,4624.11 v -285.54 h -36.85 v 285.54 h 36.85"
         style="fill:#696c6c;fill-opacity:1;fill-rule:nonzero;stroke:none"
         transform="matrix(0.13333333,0,0,-0.13333333,0,960)" />
      <path
         id="path19"
         d="m 2986.95,4338.57 v 285.54 h 40.24 l 91.52,-144.47 c 21.17,-33.46 37.7,-63.54 51.25,-92.78 l 0.85,0.43 c -3.39,38.13 -4.24,72.87 -4.24,117.35 v 119.47 h 34.74 v -285.54 h -37.27 l -90.67,144.89 c -19.9,31.77 -38.98,64.4 -53.38,95.33 l -1.27,-0.43 c 2.12,-36.01 2.97,-70.33 2.97,-117.78 v -122.01 h -34.74"
         style="fill:#696c6c;fill-opacity:1;fill-rule:nonzero;stroke:none"
         transform="matrix(0.13333333,0,0,-0.13333333,0,960)" />
      <path
         id="path20"
         d="m 3345.3,4383.48 c 16.53,-10.17 40.67,-18.64 66.09,-18.64 37.71,0 59.74,19.91 59.74,48.71 0,26.7 -15.26,41.95 -53.81,56.78 -46.6,16.51 -75.41,40.66 -75.41,80.92 0,44.47 36.86,77.53 92.36,77.53 29.23,0 50.41,-6.78 63.13,-13.99 l -10.18,-30.08 c -9.31,5.09 -28.37,13.56 -54.23,13.56 -38.97,0 -53.8,-23.3 -53.8,-42.79 0,-26.68 17.38,-39.82 56.78,-55.07 48.29,-18.64 72.87,-41.94 72.87,-83.88 0,-44.07 -32.63,-82.19 -99.99,-82.19 -27.53,0 -57.62,8.05 -72.87,18.21 l 9.32,30.93"
         style="fill:#696c6c;fill-opacity:1;fill-rule:nonzero;stroke:none"
         transform="matrix(0.13333333,0,0,-0.13333333,0,960)" />
      <path
         id="path21"
         d="m 3698.16,4592.76 h -86.85 v 31.35 h 211.41 v -31.35 h -87.28 v -254.19 h -37.28 v 254.19"
         style="fill:#696c6c;fill-opacity:1;fill-rule:nonzero;stroke:none"
         transform="matrix(0.13333333,0,0,-0.13333333,0,960)" />
      <path
         id="path22"
         d="m 3976.03,4624.11 v -285.54 h -36.85 v 285.54 h 36.85"
         style="fill:#696c6c;fill-opacity:1;fill-rule:nonzero;stroke:none"
         transform="matrix(0.13333333,0,0,-0.13333333,0,960)" />
      <path
         id="path23"
         d="m 4179.38,4592.76 h -86.85 v 31.35 h 211.41 v -31.35 h -87.28 v -254.19 h -37.28 v 254.19"
         style="fill:#696c6c;fill-opacity:1;fill-rule:nonzero;stroke:none"
         transform="matrix(0.13333333,0,0,-0.13333333,0,960)" />
      <path
         id="path24"
         d="m 4457.25,4624.11 v -169.03 c 0,-63.98 28.39,-91.09 66.52,-91.09 42.36,0 69.48,27.96 69.48,91.09 v 169.03 h 37.28 v -166.49 c 0,-87.7 -46.18,-123.71 -108.04,-123.71 -58.46,0 -102.51,33.46 -102.51,122.01 v 168.19 h 37.27"
         style="fill:#696c6c;fill-opacity:1;fill-rule:nonzero;stroke:none"
         transform="matrix(0.13333333,0,0,-0.13333333,0,960)" />
      <path
         id="path25"
         d="m 4833.42,4592.76 h -86.86 v 31.35 h 211.41 v -31.35 h -87.28 v -254.19 h -37.27 v 254.19"
         style="fill:#696c6c;fill-opacity:1;fill-rule:nonzero;stroke:none"
         transform="matrix(0.13333333,0,0,-0.13333333,0,960)" />
      <path
         id="path26"
         d="m 5222.29,4472.44 h -111 V 4369.5 h 123.7 v -30.93 h -160.56 v 285.54 h 154.21 v -30.92 h -117.35 v -90.25 h 111 v -30.5"
         style="fill:#696c6c;fill-opacity:1;fill-rule:nonzero;stroke:none"
         transform="matrix(0.13333333,0,0,-0.13333333,0,960)" />
      <path
         id="path27"
         d="m 5564.52,4479.64 c 0,-61 33.04,-115.65 91.08,-115.65 58.46,0 91.52,53.8 91.52,118.63 0,56.76 -29.67,116.08 -91.1,116.08 -61,0 -91.5,-56.35 -91.5,-119.06 z m 221.57,4.67 c 0,-98.29 -59.74,-150.4 -132.6,-150.4 -75.42,0 -128.37,58.47 -128.37,144.89 0,90.66 56.35,149.98 132.6,149.98 77.96,0 128.37,-59.74 128.37,-144.47"
         style="fill:#696c6c;fill-opacity:1;fill-rule:nonzero;stroke:none"
         transform="matrix(0.13333333,0,0,-0.13333333,0,960)" />
      <path
         id="path28"
         d="m 5918.64,4624.11 h 153.79 v -30.92 H 5955.5 v -94.9 h 108.03 v -30.51 H 5955.5 v -129.21 h -36.86 v 285.54"
         style="fill:#696c6c;fill-opacity:1;fill-rule:nonzero;stroke:none"
         transform="matrix(0.13333333,0,0,-0.13333333,0,960)" />
      <path
         id="path29"
         d="m 2914.73,4187.51 v -473.83 h -92.53 v 473.83 h 92.53"
         style="fill:#203466;fill-opacity:1;fill-rule:nonzero;stroke:none"
         transform="matrix(0.13333333,0,0,-0.13333333,0,960)" />
      <path
         id="path30"
         d="m 3020.77,3713.68 v 473.83 h 105.32 l 130.89,-203.17 c 33.86,-52.73 63.2,-107.57 86.52,-158.89 h 1.5 c -6.02,63.28 -8.27,124.44 -8.27,196.85 v 165.21 h 85.75 v -473.83 h -95.54 l -132.39,208.09 c -32.35,52.02 -66.2,110.36 -91.03,163.8 l -2.25,-0.71 c 3.75,-61.16 4.51,-123.72 4.51,-201.76 v -169.42 h -85.01"
         style="fill:#203466;fill-opacity:1;fill-rule:nonzero;stroke:none"
         transform="matrix(0.13333333,0,0,-0.13333333,0,960)" />
      <path
         id="path31"
         d="m 3621.8,3779.76 c 12.78,-2.1 32.34,-2.1 51.15,-2.1 120.36,-0.71 191.82,61.16 191.82,181.36 0.76,104.76 -63.94,164.51 -179.79,164.51 -29.34,0 -50.4,-2.11 -63.18,-4.92 z m -92.54,401.42 c 40.62,6.33 92.54,9.84 147.45,9.84 94.79,0 160.23,-18.28 206.87,-54.83 48.9,-37.27 78.99,-93.51 78.99,-174.35 0,-84.36 -30.85,-147.63 -78.99,-188.41 -50.39,-42.88 -130.9,-64.67 -229.44,-64.67 -54.17,0 -94.79,2.8 -124.88,6.33 v 466.09"
         style="fill:#203466;fill-opacity:1;fill-rule:nonzero;stroke:none"
         transform="matrix(0.13333333,0,0,-0.13333333,0,960)" />
      <path
         id="path32"
         d="m 4134.79,4187.51 v -276.29 c 0,-92.8 41.38,-135.68 103.82,-135.68 66.95,0 106.82,42.88 106.82,135.68 v 276.29 h 92.54 v -270.66 c 0,-146.23 -80.5,-210.91 -202.37,-210.91 -117.35,0 -193.33,61.17 -193.33,210.2 v 271.37 h 92.52"
         style="fill:#203466;fill-opacity:1;fill-rule:nonzero;stroke:none"
         transform="matrix(0.13333333,0,0,-0.13333333,0,960)" />
      <path
         id="path33"
         d="m 4541.73,3807.88 c 30.08,-16.17 75.22,-30.22 122.62,-30.22 59.43,0 92.53,26 92.53,64.67 0,35.85 -25.58,56.94 -90.27,78.73 -83.5,28.12 -136.92,69.6 -136.92,137.79 0,77.34 69.22,136.38 179.05,136.38 54.91,0 95.53,-11.25 121.86,-23.9 l -22.57,-69.59 c -18.05,9.13 -53.41,22.49 -100.8,22.49 -58.68,0 -84.26,-29.53 -84.26,-56.94 0,-36.56 29.34,-53.44 97.05,-78.03 88.01,-30.94 130.89,-72.41 130.89,-140.61 0,-75.93 -61.68,-142.01 -192.58,-142.01 -53.41,0 -109.08,14.07 -136.91,29.53 l 20.31,71.71"
         style="fill:#203466;fill-opacity:1;fill-rule:nonzero;stroke:none"
         transform="matrix(0.13333333,0,0,-0.13333333,0,960)" />
      <path
         id="path34"
         d="m 5031.42,4115.09 h -144.44 v 72.42 h 382.91 v -72.42 h -145.94 v -401.41 h -92.53 v 401.41"
         style="fill:#203466;fill-opacity:1;fill-rule:nonzero;stroke:none"
         transform="matrix(0.13333333,0,0,-0.13333333,0,960)" />
      <path
         id="path35"
         d="m 5421.06,3971.68 h 54.92 c 62.43,0 101.55,30.93 101.55,78.03 0,52.03 -39.12,75.93 -99.29,75.93 -29.34,0 -48.15,-2.11 -57.18,-4.22 z m -91.78,209.5 c 34.61,5.62 86.51,9.84 139.92,9.84 72.98,0 122.62,-11.25 156.48,-37.96 27.83,-21.79 43.63,-54.85 43.63,-94.91 0,-61.17 -44.39,-102.64 -91.78,-118.81 v -2.11 c 36.11,-12.66 57.92,-45.7 70.71,-91.38 15.8,-59.06 29.34,-113.89 39.87,-132.17 h -95.54 c -7.51,14.05 -19.55,52.73 -33.84,111.77 -14.3,61.87 -38.38,81.55 -91.03,82.96 h -46.64 v -194.73 h -91.78 v 467.5"
         style="fill:#203466;fill-opacity:1;fill-rule:nonzero;stroke:none"
         transform="matrix(0.13333333,0,0,-0.13333333,0,960)" />
      <path
         id="path36"
         d="m 5849.81,4187.51 v -473.83 h -92.53 v 473.83 h 92.53"
         style="fill:#203466;fill-opacity:1;fill-rule:nonzero;stroke:none"
         transform="matrix(0.13333333,0,0,-0.13333333,0,960)" />
      <path
         id="path37"
         d="m 6202.6,3913.33 -39.87,116.7 c -9.78,28.82 -18.05,61.16 -25.58,88.58 h -1.5 c -7.53,-27.42 -15.04,-60.46 -24.08,-88.58 l -39.11,-116.7 z m -145.19,-65.38 -43.63,-134.27 h -95.54 l 162.49,473.83 h 118.11 l 164.74,-473.83 h -99.3 l -45.88,134.27 h -160.99"
         style="fill:#203466;fill-opacity:1;fill-rule:nonzero;stroke:none"
         transform="matrix(0.13333333,0,0,-0.13333333,0,960)" />
      <path
         id="path38"
         d="m 6434.24,4187.51 h 92.54 v -401.42 h 208.37 v -72.41 h -300.91 v 473.83"
         style="fill:#203466;fill-opacity:1;fill-rule:nonzero;stroke:none"
         transform="matrix(0.13333333,0,0,-0.13333333,0,960)" />
      <path
         id="path39"
         d="m 2932.78,3457.17 c 0,-28.82 14.3,-52.02 36.86,-75.93 42.88,25.31 67.7,47.11 67.7,80.15 0,25.3 -15.04,53.42 -50.39,53.42 -35.36,0 -54.17,-28.12 -54.17,-57.64 z m 125.63,-280.51 c -30.84,30.24 -78.98,80.15 -126.38,131.47 -24.07,-15.46 -51.9,-40.07 -51.9,-79.44 0,-47.11 36.85,-83.66 93.28,-83.66 36.1,0 66.19,13.37 85,31.63 z m 84.26,-87.87 c -12.79,11.96 -24.82,23.91 -39.87,39.37 -38.36,-30.23 -85.01,-47.1 -142.94,-47.1 -112.08,0 -167.75,65.38 -167.75,133.58 0,63.26 39.87,108.25 97.79,137.07 v 2.12 c -24.07,26.71 -40.62,61.16 -40.62,94.9 0,59.05 48.14,121.62 142.18,121.62 71.47,0 125.63,-41.47 125.63,-106.15 0,-49.21 -30.09,-89.28 -104.57,-123.73 l -0.75,-2.81 c 35.36,-37.96 74.48,-80.15 102.31,-108.27 21.81,31.64 36.86,75.92 45.89,125.85 h 82.75 c -13.54,-73.12 -36.87,-132.88 -78.99,-177.87 27.83,-28.83 55.66,-57.64 87.26,-88.58 h -108.32"
         style="fill:#203466;fill-opacity:1;fill-rule:nonzero;stroke:none"
         transform="matrix(0.13333333,0,0,-0.13333333,0,960)" />
      <path
         id="path40"
         d="m 3460.8,3182.99 c 30.09,-16.16 75.23,-30.22 122.62,-30.22 59.43,0 92.54,26.01 92.54,64.67 0,35.86 -25.58,56.95 -90.28,78.74 -83.5,28.12 -136.91,69.6 -136.91,137.79 0,77.33 69.2,136.38 179.04,136.38 54.91,0 95.53,-11.25 121.86,-23.9 l -22.56,-69.6 c -18.06,9.14 -53.41,22.5 -100.81,22.5 -58.67,0 -84.25,-29.53 -84.25,-56.95 0,-36.55 29.33,-53.42 97.04,-78.03 88.02,-30.93 130.9,-72.41 130.9,-140.6 0,-75.93 -61.69,-142.01 -192.58,-142.01 -53.41,0 -109.08,14.07 -136.91,29.53 l 20.3,71.7"
         style="fill:#203466;fill-opacity:1;fill-rule:nonzero;stroke:none"
         transform="matrix(0.13333333,0,0,-0.13333333,0,960)" />
      <path
         id="path41"
         d="m 3968.55,3088.79 v 197.55 l -160.23,276.28 h 105.31 l 60.94,-121.63 c 17.31,-35.14 30.09,-61.86 43.64,-94.19 h 1.5 c 12.79,30.23 27.08,59.75 44.39,94.19 l 60.93,121.63 h 104.57 l -168.51,-274.17 v -199.66 h -92.54"
         style="fill:#203466;fill-opacity:1;fill-rule:nonzero;stroke:none"
         transform="matrix(0.13333333,0,0,-0.13333333,0,960)" />
      <path
         id="path42"
         d="m 4267.18,3182.99 c 30.08,-16.16 75.22,-30.22 122.62,-30.22 59.43,0 92.53,26.01 92.53,64.67 0,35.86 -25.58,56.95 -90.27,78.74 -83.5,28.12 -136.91,69.6 -136.91,137.79 0,77.33 69.19,136.38 179.04,136.38 54.91,0 95.53,-11.25 121.86,-23.9 l -22.56,-69.6 c -18.06,9.14 -53.42,22.5 -100.81,22.5 -58.68,0 -84.25,-29.53 -84.25,-56.95 0,-36.55 29.33,-53.42 97.04,-78.03 88.02,-30.93 130.89,-72.41 130.89,-140.6 0,-75.93 -61.68,-142.01 -192.58,-142.01 -53.41,0 -109.08,14.07 -136.91,29.53 l 20.31,71.7"
         style="fill:#203466;fill-opacity:1;fill-rule:nonzero;stroke:none"
         transform="matrix(0.13333333,0,0,-0.13333333,0,960)" />
      <path
         id="path43"
         d="m 4756.87,3490.21 h -144.44 v 72.41 h 382.91 v -72.41 H 4849.4 v -401.42 h -92.53 v 401.42"
         style="fill:#203466;fill-opacity:1;fill-rule:nonzero;stroke:none"
         transform="matrix(0.13333333,0,0,-0.13333333,0,960)" />
      <path
         id="path44"
         d="m 5338.34,3299 h -191.07 v -139.21 h 213.63 v -71 h -306.17 v 473.83 h 294.89 v -71.01 h -202.35 v -122.32 h 191.07 V 3299"
         style="fill:#203466;fill-opacity:1;fill-rule:nonzero;stroke:none"
         transform="matrix(0.13333333,0,0,-0.13333333,0,960)" />
      <path
         id="path45"
         d="m 5870.16,3282.12 c -3,61.16 -6.77,134.98 -6.01,198.95 h -2.26 c -16.55,-57.64 -37.61,-121.62 -60.19,-181.37 l -73.71,-205.28 h -71.47 l -67.7,202.46 c -19.56,60.46 -37.62,125.14 -51.16,184.19 h -1.51 c -2.26,-61.87 -5.26,-137.08 -9.02,-201.76 l -11.28,-190.52 h -86.52 l 33.86,473.83 h 121.86 l 66.2,-190.51 c 18.06,-55.55 33.86,-111.79 46.65,-164.51 h 2.24 c 13.56,51.32 30.85,109.67 50.41,165.2 l 69.96,189.82 h 120.36 l 29.34,-473.83 h -90.26 l -9.79,193.33"
         style="fill:#203466;fill-opacity:1;fill-rule:nonzero;stroke:none"
         transform="matrix(0.13333333,0,0,-0.13333333,0,960)" />
      <path
         id="path46"
         d="m 6061.94,3182.99 c 30.09,-16.16 75.23,-30.22 122.62,-30.22 59.43,0 92.54,26.01 92.54,64.67 0,35.86 -25.59,56.95 -90.28,78.74 -83.5,28.12 -136.91,69.6 -136.91,137.79 0,77.33 69.21,136.38 179.04,136.38 54.91,0 95.53,-11.25 121.86,-23.9 l -22.56,-69.6 c -18.06,9.14 -53.41,22.5 -100.81,22.5 -58.68,0 -84.26,-29.53 -84.26,-56.95 0,-36.55 29.34,-53.42 97.05,-78.03 88.02,-30.93 130.9,-72.41 130.9,-140.6 0,-75.93 -61.69,-142.01 -192.58,-142.01 -53.42,0 -109.09,14.07 -136.91,29.53 l 20.3,71.7"
         style="fill:#203466;fill-opacity:1;fill-rule:nonzero;stroke:none"
         transform="matrix(0.13333333,0,0,-0.13333333,0,960)" />
      <path
         id="path47"
         d="m 2972.75,2727.67 h -125.74 v -116.62 h 140.13 v -35.03 h -181.88 v 323.46 h 174.69 v -35.03 h -132.94 v -102.22 h 125.74 v -34.56"
         style="fill:#696c6c;fill-opacity:1;fill-rule:nonzero;stroke:none"
         transform="matrix(0.13333333,0,0,-0.13333333,0,960)" />
      <path
         id="path48"
         d="m 3137.29,2576.02 v 323.46 h 45.6 l 103.66,-163.65 c 23.99,-37.91 42.71,-71.98 58.06,-105.1 l 0.96,0.48 c -3.83,43.19 -4.8,82.55 -4.8,132.93 v 135.34 h 39.36 v -323.46 h -42.24 l -102.7,164.13 c -22.55,35.99 -44.15,72.94 -60.47,107.98 l -1.44,-0.48 c 2.41,-40.8 3.37,-79.66 3.37,-133.41 v -138.22 h -39.36"
         style="fill:#696c6c;fill-opacity:1;fill-rule:nonzero;stroke:none"
         transform="matrix(0.13333333,0,0,-0.13333333,0,960)" />
      <path
         id="path49"
         d="m 3795.17,2590.42 c -18.72,-6.72 -55.67,-17.75 -99.34,-17.75 -48.95,0 -89.26,12.47 -120.94,42.71 -27.84,26.87 -45.11,70.06 -45.11,120.45 0.48,96.46 66.7,167.01 175.17,167.01 37.43,0 66.71,-8.16 80.63,-14.88 l -10.09,-34.07 c -17.27,7.68 -38.86,13.91 -71.5,13.91 -78.7,0 -130.06,-48.95 -130.06,-130.05 0,-82.06 49.43,-130.53 124.78,-130.53 27.35,0 46.07,3.83 55.67,8.64 v 96.46 h -65.75 v 33.59 h 106.54 v -155.49"
         style="fill:#696c6c;fill-opacity:1;fill-rule:nonzero;stroke:none"
         transform="matrix(0.13333333,0,0,-0.13333333,0,960)" />
      <path
         id="path50"
         d="m 3996.66,2899.48 v -323.46 h -41.75 v 323.46 h 41.75"
         style="fill:#696c6c;fill-opacity:1;fill-rule:nonzero;stroke:none"
         transform="matrix(0.13333333,0,0,-0.13333333,0,960)" />
      <path
         id="path51"
         d="m 4165.55,2576.02 v 323.46 h 45.6 l 103.66,-163.65 c 23.99,-37.91 42.71,-71.98 58.06,-105.1 l 0.96,0.48 c -3.83,43.19 -4.79,82.55 -4.79,132.93 v 135.34 h 39.35 v -323.46 h -42.24 l -102.7,164.13 c -22.55,35.99 -44.15,72.94 -60.46,107.98 l -1.45,-0.48 c 2.41,-40.8 3.37,-79.66 3.37,-133.41 v -138.22 h -39.36"
         style="fill:#696c6c;fill-opacity:1;fill-rule:nonzero;stroke:none"
         transform="matrix(0.13333333,0,0,-0.13333333,0,960)" />
      <path
         id="path52"
         d="m 4744.72,2727.67 h -125.74 v -116.62 h 140.13 v -35.03 h -181.88 v 323.46 h 174.69 v -35.03 h -132.94 v -102.22 h 125.74 v -34.56"
         style="fill:#696c6c;fill-opacity:1;fill-rule:nonzero;stroke:none"
         transform="matrix(0.13333333,0,0,-0.13333333,0,960)" />
      <path
         id="path53"
         d="m 5076.75,2727.67 h -125.74 v -116.62 h 140.13 v -35.03 h -181.88 v 323.46 h 174.69 v -35.03 h -132.94 v -102.22 h 125.74 v -34.56"
         style="fill:#696c6c;fill-opacity:1;fill-rule:nonzero;stroke:none"
         transform="matrix(0.13333333,0,0,-0.13333333,0,960)" />
      <path
         id="path54"
         d="m 5283.04,2747.83 h 42.71 c 44.63,0 72.94,24.47 72.94,61.43 0,41.75 -30.23,59.98 -74.37,60.46 -20.16,0 -34.56,-1.92 -41.28,-3.83 z m -41.75,147.33 c 21.12,4.32 51.35,6.72 80.14,6.72 44.64,0 73.43,-8.16 93.59,-26.4 16.31,-14.39 25.43,-36.47 25.43,-61.43 0,-42.71 -26.87,-71.02 -60.94,-82.53 v -1.45 c 24.94,-8.64 39.82,-31.67 47.51,-65.26 10.55,-45.12 18.23,-76.31 24.95,-88.79 h -43.19 c -5.28,9.12 -12.48,36.95 -21.6,77.26 -9.6,44.64 -26.87,61.43 -64.79,62.87 h -39.35 v -140.13 h -41.75 v 319.14"
         style="fill:#696c6c;fill-opacity:1;fill-rule:nonzero;stroke:none"
         transform="matrix(0.13333333,0,0,-0.13333333,0,960)" />
      <path
         id="path55"
         d="m 5589.64,2626.89 c 18.72,-11.51 46.08,-21.12 74.87,-21.12 42.71,0 67.67,22.56 67.67,55.19 0,30.24 -17.28,47.51 -60.95,64.32 -52.8,18.71 -85.42,46.06 -85.42,91.66 0,50.39 41.75,87.81 104.62,87.81 33.11,0 57.1,-7.67 71.5,-15.83 l -11.52,-34.07 c -10.55,5.76 -32.15,15.35 -61.42,15.35 -44.16,0 -60.95,-26.39 -60.95,-48.47 0,-30.23 19.68,-45.11 64.3,-62.39 54.71,-21.1 82.55,-47.5 82.55,-95.01 0,-49.91 -36.95,-93.11 -113.26,-93.11 -31.2,0 -65.27,9.12 -82.54,20.63 l 10.55,35.04"
         style="fill:#696c6c;fill-opacity:1;fill-rule:nonzero;stroke:none"
         transform="matrix(0.13333333,0,0,-0.13333333,0,960)" />
    </g>
  </g>
</svg>
