<svg width="227" height="32" viewBox="0 0 227 32" fill="none" xmlns="http://www.w3.org/2000/svg">
<g clip-path="url(#clip0_2183_3015)">
<path d="M46.1933 26.6525V28.575C48.4152 28.2515 50.6723 27.8935 52.9456 27.5063C52.5158 26.915 52.1644 26.2812 51.8995 25.605C49.9776 25.9789 48.0719 26.3263 46.1933 26.6498V26.6525Z" fill="#80BC00"/>
<path d="M38.0191 27.8987V29.6118C39.3166 29.4739 40.6303 29.3201 41.9602 29.153V27.3418C40.6303 27.5433 39.3139 27.7316 38.0191 27.9013V27.8987Z" fill="#80BC00"/>
<path d="M15.1512 10.052C15.0701 9.96179 14.9971 9.86368 14.9322 9.76025C8.35291 12.7277 -13.8773 23.9529 12.84 29.4449C13.478 29.5748 14.1402 29.6915 14.8187 29.7949V28.5088C-12.915 24.3878 9.78555 12.6083 15.1512 10.0493V10.052Z" fill="#80BC00"/>
<path d="M19.035 28.9302V30.2534C20.0892 30.3277 21.1785 30.3754 22.3003 30.4019V29.0336C21.1758 29.0256 20.0865 28.9938 19.035 28.9328V28.9302Z" fill="#80BC00"/>
<path d="M26.5334 28.949V30.3969C28.85 30.3439 31.2746 30.2113 33.7831 30.0071V28.3975C31.2692 28.66 28.8446 28.8456 26.5334 28.9464V28.949Z" fill="#80BC00"/>
<path d="M92.7295 16.7344C91.5429 16.7344 90.6779 17.1693 90.1346 18.0391C89.8913 18.4262 89.7075 18.9195 89.5723 19.5082C91.3969 19.0388 93.1837 18.5721 94.9299 18.108C94.4649 17.1958 93.7324 16.7344 92.7295 16.7344Z" fill="#80BC00"/>
<path d="M77.1407 19.7685C76.9785 20.4315 76.8974 21.2164 76.8974 22.1207V22.6166C79.6762 21.9696 82.4198 21.3066 85.104 20.6383V17.6152C82.5009 18.3392 79.8384 19.0605 77.1407 19.7685Z" fill="#80BC00"/>
<path d="M64.6418 26.2387C63.6768 27.2597 62.3847 27.7688 60.771 27.7688C59.4492 27.7688 58.3409 27.4109 57.4435 26.7081C57.2543 26.5596 57.0705 26.4005 56.9002 26.2228C56.5109 25.8065 56.2055 25.3265 55.9757 24.7882C55.6405 24.0085 55.4702 23.1016 55.4702 22.0647C55.4702 20.4339 55.9595 19.1026 56.938 18.0711C57.9165 17.0395 59.1951 16.5224 60.771 16.5224C62.3469 16.5224 63.6633 17.0395 64.6418 18.0711C65.6068 19.092 66.0907 20.4524 66.0907 22.1549C66.0907 22.2848 66.0826 22.4095 66.0772 22.5341C67.4828 22.2 68.8884 21.8606 70.2886 21.5132C70.1534 19.1822 69.2425 17.1933 67.5584 15.5492C65.6987 13.7618 63.4362 12.8682 60.771 12.8682C58.1058 12.8682 55.8676 13.7565 54.0214 15.5306C52.1752 17.3073 51.2507 19.4606 51.2507 21.9905C51.2507 23.3032 51.4697 24.5071 51.9022 25.6049C52.1698 26.2812 52.5185 26.9123 52.9483 27.5063C53.2483 27.92 53.5862 28.3125 53.9673 28.6864C55.7757 30.487 58.022 31.386 60.698 31.386C63.3741 31.386 65.6798 30.5029 67.5395 28.7421C68.8938 27.44 69.748 25.9073 70.1102 24.1464C68.5505 24.4859 66.9854 24.82 65.4203 25.1435C65.2095 25.544 64.9527 25.9126 64.6418 26.2387Z" fill="#002F87"/>
<path d="M70.2885 21.5156C68.8883 21.863 67.4827 22.2024 66.0771 22.5366C62.7063 23.3348 59.3248 24.0932 55.9756 24.788C56.2054 25.3263 56.5109 25.8063 56.9001 26.2226C57.0704 26.4029 57.2542 26.5594 57.4434 26.7079C60.0924 26.2173 62.7577 25.6949 65.4202 25.1433C66.9853 24.8198 68.5504 24.4857 70.1101 24.1462C70.9697 23.958 71.8266 23.7697 72.6807 23.5787V20.9189C71.886 21.1205 71.0886 21.3194 70.2885 21.5156Z" fill="#80BC00"/>
<path d="M119.301 2.78076L121.066 6.52251C116.176 8.17991 107.583 11.0147 97.1786 14.128C97.7003 14.5284 98.1733 15.0349 98.5923 15.6501C99.9168 13.8867 101.709 13.0036 103.969 13.0036C105.785 13.0036 107.199 13.4836 108.213 14.4382C114.543 12.6244 119.614 11.0757 122.753 10.0998L124.345 13.473L131.262 3.8415L119.301 2.78076Z" fill="#80BC00"/>
<path d="M16.9676 10.8792C18.3083 10.8871 19.4031 9.82639 19.4166 8.51108C19.4274 7.19576 18.3516 6.12177 17.0109 6.11381C15.6701 6.10586 14.5754 7.16659 14.5619 8.48191C14.5565 8.95393 14.6943 9.39149 14.9322 9.76275C14.9971 9.86617 15.07 9.96163 15.1511 10.0544C15.5917 10.5556 16.2405 10.8739 16.9676 10.8792Z" fill="#ED7623"/>
<path d="M98.5927 15.6499C98.1738 15.0347 97.7034 14.5282 97.179 14.1277C96.2032 13.3799 95.0436 13.0034 93.7029 13.0034C92.7784 13.0034 92.0107 13.1572 91.3971 13.4621C90.8214 13.7565 90.1294 14.3213 89.3184 15.154V13.4992H85.1016V31.4018H89.3184V22.1548C89.3184 21.1153 89.4049 20.2376 89.5725 19.5057C89.7077 18.917 89.8915 18.4237 90.1348 18.0365C90.6781 17.1667 91.5431 16.7318 92.7297 16.7318C93.7326 16.7318 94.4651 17.1933 94.9301 18.1055C95.3355 18.8984 95.5383 20.0307 95.5383 21.5104V31.3992H99.7713V22.1522C99.7713 20.2535 100.036 18.8745 100.569 18.0153C101.099 17.1588 101.945 16.7292 103.107 16.7292C104.107 16.7292 104.823 17.0898 105.261 17.8138C105.686 18.5245 105.899 19.739 105.899 21.4521V31.3965H110.132V20.3304C110.132 17.6016 109.492 15.6393 108.213 14.4327C107.199 13.478 105.786 12.998 103.969 12.998C101.709 12.998 99.9146 13.8811 98.5927 15.6446V15.6499Z" fill="#002F87"/>
<path d="M77.1409 19.7685C77.3977 18.7104 77.8599 17.9573 78.5275 17.5064C78.5275 17.5064 80.4548 16.2044 82.6822 17.8538V13.2158C82.6822 13.2158 79.5196 12.041 76.8922 14.8254V13.4969H72.6754V31.3994H76.8922V22.118C76.8922 21.2137 76.9733 20.4314 77.1355 19.7658L77.1409 19.7685Z" fill="#002F87"/>
<path d="M19.0348 13.4995H14.818V28.5116V29.7977V31.4021H19.0348V30.2538V28.9306V13.4995Z" fill="#002F87"/>
<path d="M38.0193 20.4288C38.0193 17.9042 37.5084 16.0851 36.4839 14.9686C35.2973 13.6586 33.643 13.001 31.5184 13.001C29.6694 13.001 28.0071 13.717 26.5339 15.1516V13.4969H22.2981V31.3994H26.5339V22.7597C26.5339 20.5295 26.8204 18.9676 27.3962 18.0739C27.9827 17.167 28.9775 16.7136 30.375 16.7136C31.6616 16.7136 32.5482 17.0556 33.0348 17.7425C33.5349 18.416 33.7836 19.6359 33.7836 21.3994V31.3994H38.0166V20.4261L38.0193 20.4288Z" fill="#002F87"/>
<path d="M46.1932 18.5801L46.2013 17.3682H50.783V13.5071H46.2256L46.258 8.4474C46.604 3.13311 50.7803 4.64731 50.7803 4.64731V4.4829V0.513095C50.1045 0.483925 49.4233 0.499836 48.7503 0.579391C48.1529 0.648339 47.5636 0.767671 46.9906 0.947996C46.4959 1.1018 46.0148 1.30334 45.5606 1.55262C45.1579 1.77272 44.7767 2.02995 44.4253 2.32165C44.1091 2.58418 43.8171 2.87588 43.5522 3.1888C43.3144 3.4699 43.1008 3.76955 42.9089 4.08247C42.7413 4.35561 42.5926 4.63936 42.4629 4.93106C42.0331 5.89102 41.9547 6.93054 41.9547 7.96476V9.3225C41.9547 9.81309 41.9547 10.3037 41.9547 10.7943V13.5098H40.4545V17.3708H41.9547V31.415H46.1877V18.5827L46.1932 18.5801Z" fill="#002F87"/>
<path d="M121.32 21.1421C120.617 20.747 119.766 20.3386 118.76 19.9143C118.098 19.6385 117.576 19.3627 117.192 19.0869C116.657 18.7024 116.387 18.3153 116.387 17.9254C116.387 17.5356 116.519 17.2307 116.79 16.984C117.057 16.7401 117.379 16.6181 117.757 16.6181C118.549 16.6181 119.641 17.342 120.115 18.8881L123.539 17.1431C122.166 14.2261 120.344 13.001 118.068 13.001C116.522 13.001 115.208 13.4969 114.124 14.4887C113.065 15.4804 112.535 16.7321 112.535 18.249C112.535 19.1082 112.711 19.8507 113.059 20.4765C113.176 20.6834 113.311 20.8796 113.468 21.0626C113.954 21.6354 114.795 22.2082 115.987 22.781C116.027 22.7995 116.068 22.8181 116.109 22.8366C116.492 23.0196 116.874 23.1973 117.247 23.3723C117.66 23.5633 118.074 23.7595 118.487 23.9637C119.558 24.5842 120.093 25.2525 120.093 25.9685C120.093 27.2095 119.398 27.8301 118.012 27.8301C117.317 27.8301 116.722 27.602 116.222 27.1485C115.965 26.9231 115.595 26.3901 115.108 25.5548L111.603 27.1485C112.843 30.0019 114.954 31.4286 117.936 31.4286C119.677 31.4286 121.161 30.8903 122.391 29.8163C123.656 28.6813 124.288 27.2732 124.288 25.5893C124.288 24.2766 123.91 23.2318 123.156 22.4548C122.75 22.0384 122.136 21.5982 121.317 21.1395L121.32 21.1421Z" fill="#002F87"/>
<path d="M127.34 27.8721C126.342 27.8721 125.545 28.6331 125.545 29.5799C125.545 30.5266 126.342 31.3089 127.34 31.3089C128.337 31.3089 129.124 30.5478 129.124 29.5799C129.124 28.6119 128.348 27.8721 127.34 27.8721ZM127.351 30.9456C126.564 30.9456 125.991 30.3409 125.991 29.5825C125.991 28.8241 126.564 28.2195 127.34 28.2195C128.116 28.2195 128.678 28.8347 128.678 29.5931C128.678 30.3515 128.116 30.9482 127.351 30.9482V30.9456Z" fill="#002F87"/>
<path d="M127.743 29.6331V29.6119C127.956 29.5483 128.105 29.4024 128.105 29.2168C128.105 29.0497 128.029 28.9145 127.935 28.8429C127.808 28.7713 127.659 28.7183 127.329 28.7183C127.043 28.7183 126.821 28.7395 126.661 28.7713V30.4791H127.064V29.7923H127.256C127.478 29.7923 127.586 29.8745 127.618 30.0627C127.672 30.2616 127.702 30.4181 127.756 30.4791H128.191C128.148 30.4154 128.116 30.312 128.064 30.0521C128.01 29.8241 127.916 29.6968 127.745 29.6358L127.743 29.6331ZM127.264 29.5085H127.072V29.0179C127.116 29.0073 127.189 28.9967 127.294 28.9967C127.548 28.9967 127.664 29.1001 127.664 29.2566C127.664 29.4343 127.483 29.5059 127.262 29.5059L127.264 29.5085Z" fill="#002F87"/>
<path d="M148.159 15.072C148.043 14.9261 147.883 14.8201 147.683 14.7511C147.483 14.6822 147.294 14.6477 147.116 14.6477C147.01 14.6477 146.902 14.6609 146.791 14.6848C146.68 14.7087 146.575 14.7458 146.478 14.7988C146.38 14.8492 146.299 14.9182 146.237 15.003C146.175 15.0879 146.145 15.1913 146.145 15.3106C146.145 15.5042 146.218 15.6527 146.367 15.7562C146.516 15.8596 146.702 15.9471 146.926 16.0187C147.151 16.0903 147.394 16.1645 147.651 16.2361C147.91 16.3077 148.151 16.4112 148.375 16.5438C148.6 16.6763 148.786 16.854 148.935 17.0794C149.083 17.3022 149.156 17.6018 149.156 17.9784C149.156 18.355 149.089 18.6467 148.954 18.9118C148.819 19.177 148.635 19.3971 148.402 19.5748C148.17 19.7498 147.902 19.8798 147.597 19.9646C147.291 20.0495 146.97 20.0919 146.632 20.0919C146.207 20.0919 145.813 20.0283 145.448 19.901C145.086 19.7737 144.745 19.5695 144.431 19.2831L145.459 18.1773C145.607 18.3709 145.794 18.5194 146.018 18.6254C146.242 18.7315 146.475 18.7846 146.716 18.7846C146.832 18.7846 146.951 18.7713 147.072 18.7448C147.194 18.7183 147.299 18.6758 147.397 18.6228C147.494 18.5698 147.57 18.4982 147.626 18.4133C147.683 18.3284 147.716 18.2277 147.716 18.1136C147.716 17.9201 147.64 17.7689 147.489 17.6549C147.337 17.5408 147.148 17.448 146.921 17.3685C146.694 17.2889 146.445 17.212 146.18 17.1325C145.915 17.0529 145.669 16.9468 145.44 16.8142C145.213 16.6817 145.023 16.5066 144.872 16.2892C144.721 16.0717 144.645 15.7853 144.645 15.4273C144.645 15.0693 144.715 14.7803 144.853 14.5204C144.991 14.2605 145.177 14.0431 145.407 13.868C145.637 13.693 145.905 13.5604 146.207 13.4729C146.51 13.3854 146.821 13.3403 147.14 13.3403C147.51 13.3403 147.867 13.3907 148.213 13.4941C148.559 13.5976 148.87 13.7699 149.146 14.0112L148.156 15.072H148.159Z" fill="#76777B"/>
<path d="M150.238 15.5147H151.568V16.114H151.586C151.63 16.0292 151.692 15.9443 151.77 15.8594C151.851 15.7746 151.946 15.7003 152.057 15.6314C152.168 15.5651 152.295 15.5094 152.435 15.467C152.576 15.4245 152.73 15.4033 152.897 15.4033C153.211 15.4033 153.489 15.467 153.735 15.5943C153.979 15.7215 154.163 15.9204 154.284 16.1936C154.444 15.9098 154.638 15.7083 154.865 15.5863C155.092 15.4643 155.374 15.406 155.706 15.406C156.009 15.406 156.263 15.4564 156.468 15.5545C156.674 15.6552 156.839 15.7905 156.958 15.9629C157.076 16.1352 157.163 16.3368 157.217 16.5701C157.268 16.8035 157.295 17.0528 157.295 17.3179V19.9194H155.909V17.3524C155.909 17.1456 155.863 16.9706 155.774 16.8221C155.684 16.6736 155.525 16.5993 155.298 16.5993C155.138 16.5993 155.003 16.6258 154.895 16.6762C154.787 16.7266 154.7 16.7982 154.636 16.8883C154.571 16.9785 154.525 17.0846 154.498 17.2066C154.471 17.3286 154.457 17.4558 154.457 17.5884V19.9194H153.07V17.5884C153.07 17.5089 153.068 17.4134 153.062 17.2994C153.057 17.1854 153.035 17.0766 152.997 16.9732C152.96 16.8698 152.9 16.7823 152.816 16.7107C152.733 16.6391 152.611 16.602 152.451 16.602C152.273 16.602 152.127 16.6338 152.016 16.6974C151.905 16.7611 151.822 16.8459 151.762 16.952C151.703 17.0581 151.665 17.1774 151.646 17.31C151.627 17.4426 151.619 17.5831 151.619 17.7263V19.9221H150.232V15.5147H150.238Z" fill="#76777B"/>
<path d="M161.285 19.3703H161.266C161.112 19.6063 160.907 19.7761 160.653 19.8795C160.396 19.9829 160.128 20.0333 159.844 20.0333C159.634 20.0333 159.434 20.0041 159.239 19.9484C159.044 19.8901 158.874 19.8052 158.725 19.6912C158.577 19.5772 158.46 19.434 158.374 19.2643C158.287 19.0945 158.244 18.8983 158.244 18.6755C158.244 18.421 158.293 18.2062 158.388 18.0312C158.482 17.8561 158.612 17.7103 158.777 17.5962C158.939 17.4822 159.125 17.3921 159.336 17.3284C159.544 17.2648 159.763 17.217 159.988 17.1879C160.212 17.1587 160.436 17.1401 160.663 17.1322C160.888 17.1269 161.096 17.1242 161.288 17.1242C161.288 16.8829 161.199 16.6893 161.026 16.5488C160.85 16.4056 160.642 16.3366 160.401 16.3366C160.161 16.3366 159.966 16.3844 159.777 16.4772C159.588 16.57 159.42 16.6999 159.274 16.8617L158.533 16.1192C158.793 15.8832 159.093 15.7055 159.439 15.5888C159.785 15.4695 160.142 15.4111 160.512 15.4111C160.918 15.4111 161.253 15.4615 161.515 15.5596C161.777 15.6604 161.985 15.8063 162.145 15.9998C162.304 16.1934 162.412 16.4294 162.472 16.7105C162.534 16.9916 162.564 17.3178 162.564 17.6864V19.9272H161.288V19.373L161.285 19.3703ZM160.942 17.9914C160.837 17.9914 160.707 17.9967 160.55 18.0046C160.393 18.0126 160.242 18.0391 160.096 18.0815C159.95 18.124 159.828 18.1876 159.726 18.2725C159.623 18.3573 159.574 18.474 159.574 18.6252C159.574 18.7896 159.644 18.9089 159.788 18.9885C159.928 19.068 160.077 19.1051 160.231 19.1051C160.366 19.1051 160.499 19.0866 160.623 19.0495C160.75 19.0123 160.861 18.9619 160.961 18.8957C161.058 18.8294 161.139 18.7445 161.196 18.6411C161.255 18.5377 161.285 18.4183 161.285 18.2778V17.9887H160.942V17.9914Z" fill="#76777B"/>
<path d="M163.615 15.515H165.002V16.223H165.021C165.169 15.9499 165.345 15.7483 165.548 15.6104C165.75 15.4752 166.007 15.4062 166.315 15.4062C166.396 15.4062 166.475 15.4089 166.556 15.4142C166.637 15.4195 166.71 15.4328 166.778 15.4513V16.6924C166.68 16.6632 166.583 16.6394 166.486 16.6234C166.388 16.6075 166.291 16.5996 166.186 16.5996C165.921 16.5996 165.71 16.6367 165.556 16.7083C165.402 16.7799 165.283 16.8833 165.199 17.0133C165.115 17.1432 165.061 17.2997 165.037 17.48C165.012 17.6603 164.999 17.8619 164.999 18.0793V19.9197H163.612V15.5123L163.615 15.515Z" fill="#76777B"/>
<path d="M170.808 16.6048H169.589V18.0739C169.589 18.1959 169.595 18.3046 169.608 18.4054C169.619 18.5061 169.649 18.591 169.692 18.6626C169.735 18.7342 169.8 18.7926 169.892 18.8297C169.981 18.8695 170.1 18.888 170.249 18.888C170.322 18.888 170.419 18.8801 170.541 18.8641C170.66 18.8482 170.752 18.8138 170.814 18.7607V19.8931C170.66 19.9488 170.5 19.9832 170.333 20.0018C170.165 20.0204 170.003 20.0283 169.843 20.0283C169.608 20.0283 169.395 20.0044 169.197 19.9567C169 19.909 168.827 19.8321 168.678 19.726C168.53 19.6199 168.416 19.482 168.332 19.3123C168.249 19.1426 168.208 18.9384 168.208 18.6944V16.5995H167.321V15.5122H168.208V14.2075H169.595V15.5122H170.814V16.5995L170.808 16.6048Z" fill="#76777B"/>
<path d="M175.947 19.1613C175.725 19.4397 175.444 19.6545 175.106 19.8057C174.768 19.9568 174.417 20.0311 174.052 20.0311C173.687 20.0311 173.381 19.9754 173.076 19.8666C172.771 19.7579 172.506 19.6015 172.281 19.3999C172.057 19.1984 171.879 18.9544 171.749 18.6707C171.619 18.3869 171.554 18.0687 171.554 17.7187C171.554 17.3686 171.619 17.0504 171.749 16.7666C171.879 16.4829 172.054 16.2389 172.281 16.0374C172.506 15.8358 172.771 15.6794 173.076 15.5707C173.381 15.4619 173.706 15.4062 174.052 15.4062C174.371 15.4062 174.663 15.4619 174.925 15.5707C175.187 15.6794 175.409 15.8358 175.59 16.0374C175.771 16.2389 175.912 16.4829 176.012 16.7666C176.109 17.0504 176.16 17.3686 176.16 17.7187V18.1456H172.944C173 18.4055 173.119 18.6123 173.303 18.7661C173.487 18.9199 173.717 18.9968 173.987 18.9968C174.214 18.9968 174.409 18.9465 174.565 18.8483C174.722 18.7476 174.86 18.6203 174.976 18.4638L175.947 19.1613ZM174.774 17.2201C174.779 16.9894 174.703 16.7932 174.544 16.6314C174.384 16.467 174.176 16.3874 173.925 16.3874C173.771 16.3874 173.636 16.4113 173.519 16.459C173.403 16.5068 173.303 16.5704 173.219 16.6447C173.135 16.7216 173.071 16.8091 173.025 16.9072C172.979 17.0053 172.952 17.1114 172.946 17.2201H174.776H174.774Z" fill="#76777B"/>
<path d="M177.185 15.515H178.571V16.223H178.59C178.739 15.9499 178.915 15.7483 179.117 15.6104C179.32 15.4752 179.577 15.4062 179.885 15.4062C179.966 15.4062 180.045 15.4089 180.126 15.4142C180.207 15.4195 180.28 15.4328 180.347 15.4513V16.6924C180.25 16.6632 180.153 16.6394 180.055 16.6234C179.958 16.6075 179.861 16.5996 179.755 16.5996C179.491 16.5996 179.28 16.6367 179.126 16.7083C178.972 16.7799 178.853 16.8833 178.769 17.0133C178.685 17.1432 178.631 17.2997 178.607 17.48C178.582 17.6603 178.569 17.8619 178.569 18.0793V19.9197H177.182V15.5123L177.185 15.515Z" fill="#76777B"/>
<path d="M184.229 13.502H186.392C186.916 13.502 187.413 13.5603 187.884 13.6743C188.354 13.7884 188.768 13.974 189.119 14.2312C189.47 14.4884 189.749 14.8226 189.954 15.2336C190.16 15.6446 190.265 16.1432 190.265 16.7292C190.265 17.249 190.165 17.7078 189.965 18.1029C189.765 18.498 189.495 18.8321 189.157 19.1C188.819 19.3678 188.427 19.572 187.984 19.7126C187.54 19.8531 187.075 19.9221 186.589 19.9221H184.232V13.502H184.229ZM185.67 18.6174H186.419C186.751 18.6174 187.062 18.5855 187.348 18.5166C187.635 18.4503 187.884 18.3389 188.092 18.1851C188.3 18.0313 188.465 17.8298 188.586 17.5778C188.705 17.3259 188.768 17.0209 188.768 16.6576C188.768 16.3447 188.708 16.0689 188.586 15.8382C188.465 15.6049 188.305 15.4139 188.1 15.2628C187.897 15.1116 187.657 14.9976 187.384 14.9233C187.111 14.8491 186.821 14.8093 186.519 14.8093H185.667V18.6174H185.67Z" fill="#76777B"/>
<path d="M195.322 19.1613C195.101 19.4397 194.82 19.6545 194.482 19.8057C194.144 19.9568 193.792 20.0311 193.427 20.0311C193.063 20.0311 192.757 19.9754 192.452 19.8666C192.146 19.7579 191.881 19.6015 191.657 19.3999C191.433 19.1984 191.254 18.9544 191.124 18.6707C190.995 18.3869 190.93 18.0687 190.93 17.7187C190.93 17.3686 190.995 17.0504 191.124 16.7666C191.254 16.4829 191.43 16.2389 191.657 16.0374C191.881 15.8358 192.146 15.6794 192.452 15.5707C192.757 15.4619 193.081 15.4062 193.427 15.4062C193.746 15.4062 194.038 15.4619 194.301 15.5707C194.563 15.6794 194.784 15.8358 194.965 16.0374C195.147 16.2389 195.287 16.4829 195.387 16.7666C195.484 17.0504 195.536 17.3686 195.536 17.7187V18.1456H192.319C192.376 18.4055 192.495 18.6123 192.679 18.7661C192.862 18.9199 193.092 18.9968 193.363 18.9968C193.59 18.9968 193.784 18.9465 193.941 18.8483C194.098 18.7476 194.236 18.6203 194.352 18.4638L195.322 19.1613ZM194.149 17.2201C194.155 16.9894 194.079 16.7932 193.919 16.6314C193.76 16.467 193.552 16.3874 193.3 16.3874C193.146 16.3874 193.011 16.4113 192.895 16.459C192.779 16.5068 192.679 16.5704 192.595 16.6447C192.511 16.7216 192.446 16.8091 192.4 16.9072C192.354 17.0053 192.327 17.1114 192.322 17.2201H194.152H194.149Z" fill="#76777B"/>
<path d="M199.418 16.9387C199.35 16.8433 199.256 16.7611 199.131 16.6974C199.007 16.6338 198.874 16.602 198.734 16.602C198.382 16.602 198.109 16.7054 197.915 16.9096C197.72 17.1164 197.623 17.3842 197.623 17.7157C197.623 18.0472 197.72 18.3177 197.915 18.5219C198.109 18.7287 198.382 18.8295 198.734 18.8295C198.888 18.8295 199.02 18.7977 199.131 18.7287C199.242 18.6624 199.337 18.5829 199.418 18.4927L200.334 19.4368C200.118 19.6542 199.864 19.808 199.572 19.8955C199.28 19.983 198.999 20.0281 198.737 20.0281C198.391 20.0281 198.066 19.9724 197.761 19.8637C197.455 19.755 197.19 19.5985 196.966 19.397C196.742 19.1955 196.563 18.9515 196.434 18.6677C196.304 18.384 196.239 18.0658 196.239 17.7157C196.239 17.3657 196.304 17.0475 196.434 16.7637C196.563 16.48 196.739 16.236 196.966 16.0345C197.19 15.8329 197.455 15.6765 197.761 15.5677C198.066 15.459 198.391 15.4033 198.737 15.4033C199.001 15.4033 199.28 15.4484 199.572 15.5359C199.864 15.6234 200.118 15.7772 200.334 15.9947L199.418 16.9387Z" fill="#76777B"/>
<path d="M200.924 14.1279C200.924 13.9105 201.002 13.7248 201.159 13.571C201.316 13.4172 201.505 13.3403 201.726 13.3403C201.948 13.3403 202.137 13.4172 202.294 13.571C202.451 13.7248 202.529 13.9105 202.529 14.1279C202.529 14.3454 202.451 14.531 202.294 14.6848C202.137 14.8386 201.948 14.9155 201.726 14.9155C201.505 14.9155 201.316 14.8386 201.159 14.6848C201.002 14.531 200.924 14.3454 200.924 14.1279ZM201.034 15.5148H202.421V19.9222H201.034V15.5148Z" fill="#76777B"/>
<path d="M206.146 16.8113C205.943 16.5647 205.675 16.44 205.343 16.44C205.227 16.44 205.11 16.4666 204.999 16.5223C204.889 16.5779 204.832 16.6708 204.832 16.8033C204.832 16.9121 204.889 16.9916 205.002 17.0447C205.116 17.0951 205.262 17.1401 205.437 17.1799C205.613 17.2197 205.8 17.2621 206.002 17.3072C206.205 17.3523 206.392 17.4239 206.567 17.5193C206.743 17.6175 206.889 17.7474 207.002 17.9145C207.116 18.0815 207.173 18.3043 207.173 18.5801C207.173 18.8559 207.111 19.0998 206.984 19.2828C206.856 19.4684 206.694 19.6143 206.5 19.7283C206.302 19.8397 206.081 19.9193 205.835 19.9643C205.589 20.0094 205.345 20.0333 205.105 20.0333C204.791 20.0333 204.472 19.9882 204.153 19.9007C203.832 19.8132 203.561 19.6567 203.34 19.434L204.18 18.5191C204.31 18.6755 204.453 18.7949 204.61 18.8771C204.767 18.9593 204.951 18.9991 205.159 18.9991C205.318 18.9991 205.464 18.9779 205.594 18.9301C205.724 18.885 205.789 18.8028 205.789 18.6809C205.789 18.5668 205.732 18.4793 205.618 18.4236C205.505 18.3653 205.359 18.3175 205.183 18.2778C205.008 18.238 204.818 18.1956 204.618 18.1505C204.418 18.1054 204.229 18.0365 204.053 17.9463C203.878 17.8561 203.732 17.7262 203.618 17.5618C203.505 17.3947 203.448 17.1746 203.448 16.8962C203.448 16.6363 203.502 16.4135 203.61 16.2252C203.718 16.037 203.859 15.8832 204.034 15.7638C204.21 15.6418 204.413 15.5543 204.64 15.496C204.867 15.4377 205.099 15.4111 205.332 15.4111C205.627 15.4111 205.927 15.4536 206.229 15.5384C206.532 15.6233 206.786 15.7744 206.997 15.9919L206.146 16.8166V16.8113Z" fill="#76777B"/>
<path d="M207.976 14.1279C207.976 13.9105 208.054 13.7248 208.211 13.571C208.368 13.4172 208.557 13.3403 208.779 13.3403C209 13.3403 209.189 13.4172 209.346 13.571C209.503 13.7248 209.581 13.9105 209.581 14.1279C209.581 14.3454 209.503 14.531 209.346 14.6848C209.189 14.8386 209 14.9155 208.779 14.9155C208.557 14.9155 208.368 14.8386 208.211 14.6848C208.054 14.531 207.976 14.3454 207.976 14.1279ZM208.087 15.5148H209.473V19.9222H208.087V15.5148Z" fill="#76777B"/>
<path d="M210.492 17.7187C210.492 17.3686 210.557 17.0504 210.687 16.7666C210.816 16.4829 210.992 16.2389 211.219 16.0374C211.443 15.8358 211.708 15.6794 212.014 15.5707C212.319 15.4619 212.644 15.4062 212.99 15.4062C213.336 15.4062 213.66 15.4619 213.965 15.5707C214.271 15.6794 214.536 15.8358 214.76 16.0374C214.985 16.2389 215.163 16.4829 215.293 16.7666C215.422 17.0504 215.487 17.3686 215.487 17.7187C215.487 18.0687 215.422 18.3869 215.293 18.6707C215.163 18.9544 214.987 19.1984 214.76 19.3999C214.536 19.6015 214.271 19.7579 213.965 19.8666C213.66 19.9754 213.336 20.0311 212.99 20.0311C212.644 20.0311 212.319 19.9754 212.014 19.8666C211.708 19.7579 211.443 19.6015 211.219 19.3999C210.995 19.1984 210.816 18.9544 210.687 18.6707C210.557 18.3869 210.492 18.0687 210.492 17.7187ZM211.879 17.7187C211.879 18.0501 211.976 18.3206 212.171 18.5248C212.365 18.7317 212.638 18.8324 212.99 18.8324C213.341 18.8324 213.614 18.729 213.809 18.5248C214.003 18.3206 214.101 18.0501 214.101 17.7187C214.101 17.3872 214.003 17.1167 213.809 16.9125C213.614 16.7057 213.341 16.6049 212.99 16.6049C212.638 16.6049 212.365 16.7083 212.171 16.9125C211.976 17.1193 211.879 17.3872 211.879 17.7187Z" fill="#76777B"/>
<path d="M216.295 15.5147H217.625V16.114H217.644C217.688 16.0292 217.75 15.9443 217.828 15.8594C217.909 15.7746 218.004 15.7003 218.115 15.6314C218.225 15.5651 218.353 15.5094 218.493 15.467C218.634 15.4245 218.788 15.4033 218.955 15.4033C219.307 15.4033 219.591 15.4564 219.807 15.5624C220.023 15.6685 220.191 15.8144 220.31 16.0026C220.429 16.1909 220.512 16.411 220.556 16.6656C220.599 16.9202 220.62 17.196 220.62 17.4903V19.9221H219.234V17.7635C219.234 17.6362 219.228 17.5062 219.22 17.3683C219.212 17.2331 219.182 17.1058 219.136 16.9918C219.09 16.8777 219.02 16.7823 218.923 16.7107C218.828 16.6391 218.69 16.602 218.512 16.602C218.334 16.602 218.188 16.6338 218.077 16.6974C217.966 16.7611 217.882 16.8459 217.823 16.952C217.763 17.0581 217.725 17.1774 217.707 17.31C217.688 17.4426 217.679 17.5831 217.679 17.7263V19.9221H216.293V15.5147H216.295Z" fill="#76777B"/>
<path d="M224.329 16.8113C224.127 16.5647 223.859 16.44 223.527 16.44C223.41 16.44 223.294 16.4666 223.183 16.5223C223.072 16.5779 223.016 16.6708 223.016 16.8033C223.016 16.9121 223.072 16.9916 223.186 17.0447C223.3 17.0951 223.446 17.1401 223.621 17.1799C223.797 17.2197 223.983 17.2621 224.186 17.3072C224.389 17.3523 224.575 17.4239 224.751 17.5193C224.927 17.6175 225.073 17.7474 225.186 17.9145C225.3 18.0815 225.357 18.3043 225.357 18.5801C225.357 18.8559 225.294 19.0998 225.167 19.2828C225.04 19.4684 224.878 19.6143 224.684 19.7283C224.486 19.8397 224.265 19.9193 224.019 19.9643C223.773 20.0094 223.529 20.0333 223.289 20.0333C222.975 20.0333 222.656 19.9882 222.337 19.9007C222.016 19.8132 221.745 19.6567 221.524 19.434L222.364 18.5191C222.494 18.6755 222.637 18.7949 222.794 18.8771C222.951 18.9593 223.135 18.9991 223.343 18.9991C223.502 18.9991 223.648 18.9779 223.778 18.9301C223.908 18.885 223.973 18.8028 223.973 18.6809C223.973 18.5668 223.916 18.4793 223.802 18.4236C223.689 18.3653 223.543 18.3175 223.367 18.2778C223.191 18.238 223.002 18.1956 222.802 18.1505C222.602 18.1054 222.413 18.0365 222.237 17.9463C222.062 17.8561 221.916 17.7262 221.802 17.5618C221.689 17.3947 221.632 17.1746 221.632 16.8962C221.632 16.6363 221.686 16.4135 221.794 16.2252C221.902 16.037 222.043 15.8832 222.218 15.7638C222.394 15.6418 222.597 15.5543 222.824 15.496C223.051 15.4377 223.283 15.4111 223.516 15.4111C223.81 15.4111 224.11 15.4536 224.413 15.5384C224.716 15.6233 224.97 15.7744 225.181 15.9919L224.329 16.8166V16.8113Z" fill="#76777B"/>
<path d="M145.229 28.0738H144.312V26.9865H145.229V26.2069C145.229 25.9656 145.25 25.7375 145.294 25.5227C145.337 25.3079 145.421 25.1197 145.542 24.9552C145.667 24.7908 145.842 24.6635 146.075 24.5707C146.307 24.4779 146.61 24.4302 146.986 24.4302C147.126 24.4302 147.267 24.4355 147.402 24.4487C147.537 24.462 147.67 24.4806 147.799 24.5124L147.735 25.6633C147.653 25.6341 147.58 25.6102 147.513 25.5943C147.445 25.5784 147.367 25.5705 147.28 25.5705C147.059 25.5705 146.891 25.6182 146.78 25.711C146.67 25.8038 146.613 25.9974 146.613 26.2865V26.9839H147.64V28.0712H146.613V31.3913H145.226V28.0712L145.229 28.0738Z" fill="#76777B"/>
<path d="M148.186 29.1874C148.186 28.8374 148.251 28.5191 148.38 28.2354C148.51 27.9516 148.686 27.7077 148.913 27.5061C149.137 27.3046 149.402 27.1481 149.708 27.0394C150.013 26.9307 150.337 26.875 150.683 26.875C151.029 26.875 151.354 26.9307 151.659 27.0394C151.965 27.1481 152.23 27.3046 152.454 27.5061C152.678 27.7077 152.857 27.9516 152.986 28.2354C153.116 28.5191 153.181 28.8374 153.181 29.1874C153.181 29.5374 153.116 29.8557 152.986 30.1394C152.857 30.4232 152.681 30.6671 152.454 30.8687C152.23 31.0702 151.965 31.2267 151.659 31.3354C151.354 31.4441 151.029 31.4998 150.683 31.4998C150.337 31.4998 150.013 31.4441 149.708 31.3354C149.402 31.2267 149.137 31.0702 148.913 30.8687C148.689 30.6671 148.51 30.4232 148.38 30.1394C148.251 29.8557 148.186 29.5374 148.186 29.1874ZM149.572 29.1874C149.572 29.5189 149.67 29.7894 149.864 29.9936C150.059 30.2004 150.332 30.3012 150.683 30.3012C151.035 30.3012 151.308 30.1978 151.502 29.9936C151.697 29.7894 151.794 29.5189 151.794 29.1874C151.794 28.8559 151.697 28.5854 151.502 28.3812C151.308 28.1744 151.035 28.0736 150.683 28.0736C150.332 28.0736 150.059 28.1771 149.864 28.3812C149.67 28.5881 149.572 28.8559 149.572 29.1874Z" fill="#76777B"/>
<path d="M153.992 26.9837H155.379V27.6918H155.398C155.547 27.4186 155.722 27.2171 155.925 27.0792C156.128 26.9439 156.385 26.875 156.693 26.875C156.774 26.875 156.852 26.8777 156.933 26.883C157.014 26.8883 157.087 26.9015 157.155 26.9201V28.1611C157.058 28.132 156.96 28.1081 156.863 28.0922C156.766 28.0763 156.668 28.0683 156.563 28.0683C156.298 28.0683 156.087 28.1055 155.933 28.1771C155.779 28.2487 155.66 28.3521 155.576 28.482C155.493 28.612 155.438 28.7684 155.414 28.9487C155.39 29.1291 155.376 29.3306 155.376 29.5481V31.3884H153.99V26.9811L153.992 26.9837Z" fill="#76777B"/>
<path d="M163.68 30.8396H163.662C163.507 31.0756 163.302 31.2453 163.048 31.3487C162.791 31.4521 162.524 31.5025 162.24 31.5025C162.029 31.5025 161.829 31.4734 161.634 31.4177C161.44 31.3593 161.269 31.2745 161.121 31.1604C160.972 31.0464 160.856 30.9032 160.769 30.7335C160.683 30.5638 160.639 30.3675 160.639 30.1448C160.639 29.8902 160.688 29.6754 160.783 29.5004C160.877 29.3254 161.007 29.1795 161.172 29.0655C161.334 28.9515 161.521 28.8613 161.732 28.7976C161.94 28.734 162.159 28.6863 162.383 28.6571C162.607 28.6279 162.832 28.6094 163.059 28.6014C163.283 28.5961 163.491 28.5935 163.683 28.5935C163.683 28.3521 163.594 28.1586 163.421 28.018C163.245 27.8748 163.037 27.8059 162.797 27.8059C162.556 27.8059 162.361 27.8536 162.172 27.9464C161.983 28.0392 161.815 28.1692 161.669 28.3309L160.929 27.5884C161.188 27.3524 161.488 27.1747 161.834 27.058C162.18 26.9387 162.537 26.8804 162.907 26.8804C163.313 26.8804 163.648 26.9308 163.91 27.0289C164.172 27.1296 164.381 27.2755 164.54 27.4691C164.7 27.6627 164.808 27.8987 164.867 28.1798C164.929 28.4609 164.959 28.787 164.959 29.1556V31.3965H163.683V30.8422L163.68 30.8396ZM163.337 29.4606C163.232 29.4606 163.102 29.4659 162.945 29.4739C162.788 29.4818 162.637 29.5083 162.491 29.5508C162.345 29.5932 162.223 29.6568 162.121 29.7417C162.018 29.8266 161.969 29.9432 161.969 30.0944C161.969 30.2588 162.04 30.3781 162.183 30.4577C162.323 30.5373 162.472 30.5744 162.626 30.5744C162.761 30.5744 162.894 30.5558 163.018 30.5187C163.145 30.4816 163.256 30.4312 163.356 30.3649C163.453 30.2986 163.534 30.2137 163.591 30.1103C163.651 30.0069 163.68 29.8876 163.68 29.747V29.458H163.337V29.4606Z" fill="#76777B"/>
<path d="M169.105 24.9712H171.546C171.83 24.9712 172.114 24.9898 172.401 25.0295C172.687 25.0693 172.944 25.1489 173.174 25.2655C173.401 25.3822 173.587 25.5493 173.728 25.7588C173.868 25.9709 173.941 26.252 173.941 26.6021C173.941 26.9521 173.839 27.265 173.63 27.5037C173.425 27.7424 173.152 27.9121 172.811 28.0155V28.0341C173.028 28.0632 173.222 28.1242 173.398 28.2117C173.574 28.2992 173.725 28.4106 173.849 28.5485C173.976 28.6838 174.074 28.8429 174.141 29.0232C174.209 29.2035 174.244 29.3971 174.244 29.604C174.244 29.9434 174.171 30.2245 174.022 30.4525C173.874 30.6779 173.685 30.8609 173.449 31.0015C173.214 31.142 172.952 31.2401 172.66 31.3011C172.368 31.3621 172.076 31.3913 171.787 31.3913H169.105V24.9712ZM170.546 27.5382H171.59C171.7 27.5382 171.811 27.5276 171.917 27.501C172.025 27.4772 172.122 27.4374 172.209 27.3844C172.295 27.3287 172.365 27.2571 172.417 27.1669C172.468 27.0768 172.495 26.968 172.495 26.8407C172.495 26.7081 172.465 26.5968 172.409 26.5093C172.349 26.4217 172.274 26.3528 172.182 26.3051C172.09 26.2573 171.984 26.2229 171.868 26.2016C171.752 26.1804 171.636 26.1698 171.525 26.1698H170.546V27.5382ZM170.546 30.1953H171.841C171.952 30.1953 172.065 30.1821 172.179 30.1582C172.292 30.1343 172.395 30.0919 172.49 30.0309C172.582 29.9699 172.657 29.893 172.717 29.7949C172.776 29.6968 172.806 29.5801 172.806 29.4422C172.806 29.291 172.768 29.1691 172.69 29.0762C172.611 28.9834 172.517 28.9118 172.398 28.8641C172.282 28.8164 172.155 28.7819 172.019 28.7633C171.884 28.7448 171.757 28.7368 171.641 28.7368H170.549V30.198L170.546 30.1953Z" fill="#76777B"/>
<path d="M179.358 30.63C179.137 30.9084 178.855 31.1232 178.518 31.2744C178.18 31.4256 177.828 31.4998 177.463 31.4998C177.098 31.4998 176.793 31.4441 176.488 31.3354C176.182 31.2267 175.917 31.0702 175.693 30.8687C175.469 30.6671 175.29 30.4232 175.16 30.1394C175.031 29.8557 174.966 29.5374 174.966 29.1874C174.966 28.8374 175.031 28.5191 175.16 28.2354C175.29 27.9516 175.466 27.7077 175.693 27.5061C175.917 27.3046 176.182 27.1481 176.488 27.0394C176.793 26.9307 177.117 26.875 177.463 26.875C177.782 26.875 178.074 26.9307 178.337 27.0394C178.599 27.1481 178.82 27.3046 179.001 27.5061C179.183 27.7077 179.323 27.9516 179.423 28.2354C179.52 28.5191 179.572 28.8374 179.572 29.1874V29.6144H176.355C176.412 29.8742 176.531 30.0811 176.715 30.2349C176.898 30.3887 177.128 30.4656 177.399 30.4656C177.626 30.4656 177.82 30.4152 177.977 30.3171C178.134 30.2163 178.272 30.089 178.388 29.9326L179.358 30.63ZM178.185 28.6889C178.191 28.4581 178.115 28.2619 177.955 28.1002C177.796 27.9357 177.588 27.8562 177.336 27.8562C177.182 27.8562 177.047 27.88 176.931 27.9278C176.815 27.9755 176.715 28.0392 176.631 28.1134C176.547 28.1903 176.482 28.2778 176.436 28.3759C176.39 28.4741 176.363 28.5801 176.358 28.6889H178.188H178.185Z" fill="#76777B"/>
<path d="M183.656 28.074H182.437V29.5431C182.437 29.6651 182.442 29.7738 182.456 29.8746C182.467 29.9754 182.496 30.0602 182.54 30.1318C182.583 30.2034 182.648 30.2618 182.74 30.2989C182.829 30.3387 182.948 30.3573 183.097 30.3573C183.17 30.3573 183.267 30.3493 183.389 30.3334C183.507 30.3175 183.599 30.283 183.662 30.23V31.3623C183.507 31.418 183.348 31.4525 183.18 31.471C183.013 31.4896 182.851 31.4975 182.691 31.4975C182.456 31.4975 182.242 31.4737 182.045 31.4259C181.848 31.3782 181.675 31.3013 181.526 31.1952C181.377 31.0892 181.264 30.9513 181.18 30.7815C181.096 30.6118 181.056 30.4076 181.056 30.1637V28.0687H180.169V26.9815H181.056V25.6768H182.442V26.9815H183.662V28.0687L183.656 28.074Z" fill="#76777B"/>
<path d="M187.789 28.074H186.57V29.5431C186.57 29.6651 186.576 29.7738 186.589 29.8746C186.6 29.9754 186.63 30.0602 186.673 30.1318C186.716 30.2034 186.781 30.2618 186.873 30.2989C186.962 30.3387 187.081 30.3573 187.23 30.3573C187.303 30.3573 187.4 30.3493 187.522 30.3334C187.641 30.3175 187.732 30.283 187.795 30.23V31.3623C187.641 31.418 187.481 31.4525 187.313 31.471C187.146 31.4896 186.984 31.4975 186.824 31.4975C186.589 31.4975 186.376 31.4737 186.178 31.4259C185.981 31.3782 185.808 31.3013 185.659 31.1952C185.511 31.0892 185.397 30.9513 185.313 30.7815C185.229 30.6118 185.189 30.4076 185.189 30.1637V28.0687H184.302V26.9815H185.189V25.6768H186.576V26.9815H187.795V28.0687L187.789 28.074Z" fill="#76777B"/>
<path d="M192.928 30.63C192.706 30.9084 192.425 31.1232 192.087 31.2744C191.749 31.4256 191.398 31.4998 191.033 31.4998C190.668 31.4998 190.362 31.4441 190.057 31.3354C189.751 31.2267 189.487 31.0702 189.262 30.8687C189.038 30.6671 188.859 30.4232 188.73 30.1394C188.6 29.8557 188.535 29.5374 188.535 29.1874C188.535 28.8374 188.6 28.5191 188.73 28.2354C188.859 27.9516 189.035 27.7077 189.262 27.5061C189.487 27.3046 189.751 27.1481 190.057 27.0394C190.362 26.9307 190.687 26.875 191.033 26.875C191.352 26.875 191.644 26.9307 191.906 27.0394C192.168 27.1481 192.39 27.3046 192.571 27.5061C192.752 27.7077 192.892 27.9516 192.992 28.2354C193.09 28.5191 193.141 28.8374 193.141 29.1874V29.6144H189.924C189.981 29.8742 190.1 30.0811 190.284 30.2349C190.468 30.3887 190.698 30.4656 190.968 30.4656C191.195 30.4656 191.389 30.4152 191.546 30.3171C191.703 30.2163 191.841 30.089 191.957 29.9326L192.928 30.63ZM191.754 28.6889C191.76 28.4581 191.684 28.2619 191.525 28.1002C191.365 27.9357 191.157 27.8562 190.906 27.8562C190.752 27.8562 190.616 27.88 190.5 27.9278C190.384 27.9755 190.284 28.0392 190.2 28.1134C190.116 28.1903 190.051 28.2778 190.006 28.3759C189.96 28.4741 189.933 28.5801 189.927 28.6889H191.757H191.754Z" fill="#76777B"/>
<path d="M194.166 26.9837H195.552V27.6918H195.571C195.72 27.4186 195.896 27.2171 196.098 27.0792C196.301 26.9439 196.558 26.875 196.866 26.875C196.947 26.875 197.025 26.8777 197.107 26.883C197.188 26.8883 197.261 26.9015 197.328 26.9201V28.1611C197.231 28.132 197.134 28.1081 197.036 28.0922C196.939 28.0763 196.842 28.0683 196.736 28.0683C196.471 28.0683 196.261 28.1055 196.106 28.1771C195.952 28.2487 195.833 28.3521 195.75 28.482C195.666 28.612 195.612 28.7684 195.587 28.9487C195.563 29.1291 195.55 29.3306 195.55 29.5481V31.3884H194.163V26.9811L194.166 26.9837Z" fill="#76777B"/>
<path d="M200.526 24.9712H202.097L203.14 29.0895H203.159L204.527 24.9712H205.867L207.227 29.1982H207.246L208.346 24.9712H209.806L207.892 31.3913H206.608L205.167 26.9468H205.148L203.708 31.3913H202.47L200.529 24.9712H200.526Z" fill="#76777B"/>
<path d="M209.946 29.1874C209.946 28.8374 210.011 28.5191 210.141 28.2354C210.27 27.9516 210.446 27.7077 210.673 27.5061C210.897 27.3046 211.162 27.1481 211.468 27.0394C211.773 26.9307 212.098 26.875 212.444 26.875C212.79 26.875 213.114 26.9307 213.419 27.0394C213.725 27.1481 213.99 27.3046 214.214 27.5061C214.438 27.7077 214.617 27.9516 214.747 28.2354C214.876 28.5191 214.941 28.8374 214.941 29.1874C214.941 29.5374 214.876 29.8557 214.747 30.1394C214.617 30.4232 214.441 30.6671 214.214 30.8687C213.99 31.0702 213.725 31.2267 213.419 31.3354C213.114 31.4441 212.79 31.4998 212.444 31.4998C212.098 31.4998 211.773 31.4441 211.468 31.3354C211.162 31.2267 210.897 31.0702 210.673 30.8687C210.449 30.6671 210.27 30.4232 210.141 30.1394C210.011 29.8557 209.946 29.5374 209.946 29.1874ZM211.333 29.1874C211.333 29.5189 211.43 29.7894 211.625 29.9936C211.819 30.2004 212.092 30.3012 212.444 30.3012C212.795 30.3012 213.068 30.1978 213.263 29.9936C213.457 29.7894 213.555 29.5189 213.555 29.1874C213.555 28.8559 213.457 28.5854 213.263 28.3812C213.068 28.1744 212.795 28.0736 212.444 28.0736C212.092 28.0736 211.819 28.1771 211.625 28.3812C211.43 28.5881 211.333 28.8559 211.333 29.1874Z" fill="#76777B"/>
<path d="M215.936 26.9837H217.323V27.6918H217.342C217.49 27.4186 217.666 27.2171 217.869 27.0792C218.071 26.9439 218.328 26.875 218.636 26.875C218.718 26.875 218.796 26.8777 218.877 26.883C218.958 26.8883 219.031 26.9015 219.099 26.9201V28.1611C219.001 28.132 218.904 28.1081 218.807 28.0922C218.709 28.0763 218.612 28.0683 218.507 28.0683C218.242 28.0683 218.031 28.1055 217.877 28.1771C217.723 28.2487 217.604 28.3521 217.52 28.482C217.436 28.612 217.382 28.7684 217.358 28.9487C217.334 29.1291 217.32 29.3306 217.32 29.5481V31.3884H215.933V26.9811L215.936 26.9837Z" fill="#76777B"/>
<path d="M219.902 24.5361H221.288V31.3911H219.902V24.5361Z" fill="#76777B"/>
<path d="M227 31.3914H225.724V30.8107H225.705C225.648 30.8902 225.578 30.9698 225.489 31.052C225.4 31.1342 225.294 31.2084 225.175 31.2747C225.056 31.341 224.924 31.3967 224.778 31.4391C224.632 31.4816 224.483 31.5028 224.329 31.5028C223.997 31.5028 223.694 31.4471 223.424 31.3357C223.153 31.2243 222.921 31.0679 222.726 30.8637C222.532 30.6622 222.383 30.4208 222.278 30.1424C222.172 29.864 222.121 29.559 222.121 29.2275C222.121 28.9199 222.169 28.6255 222.264 28.3445C222.359 28.0634 222.496 27.8141 222.669 27.5966C222.845 27.3792 223.059 27.2042 223.313 27.0742C223.567 26.9443 223.853 26.878 224.172 26.878C224.462 26.878 224.732 26.9231 224.981 27.0106C225.229 27.0981 225.435 27.2492 225.594 27.4587H225.613V24.5391H227V31.3941V31.3914ZM225.724 29.1877C225.724 28.8563 225.627 28.5858 225.432 28.3816C225.237 28.1747 224.964 28.074 224.613 28.074C224.262 28.074 223.989 28.1774 223.794 28.3816C223.599 28.5884 223.502 28.8563 223.502 29.1877C223.502 29.5192 223.599 29.7897 223.794 29.9939C223.989 30.2007 224.262 30.3015 224.613 30.3015C224.964 30.3015 225.237 30.1981 225.432 29.9939C225.627 29.7897 225.724 29.5192 225.724 29.1877Z" fill="#76777B"/>
<path d="M136.428 13.4966H135.887V31.3859H136.428V13.4966Z" fill="#76777B"/>
</g>
<defs>
<clipPath id="clip0_2183_3015">
<rect width="227" height="31" fill="white" transform="translate(0 0.5)"/>
</clipPath>
</defs>
</svg>
